<svg xmlns="http://www.w3.org/2000/svg" width="128" height="128" viewBox="0 0 128 128">
  <g id="Group_6" data-name="Group 6" transform="translate(1816 979)">
    <path id="Icon_awesome-filter" data-name="Icon awesome-filter" d="M51.1,0H2.516A2.515,2.515,0,0,0,.739,4.291L20.108,23.662v21.58A2.514,2.514,0,0,0,21.18,47.3l8.378,5.863A2.515,2.515,0,0,0,33.513,51.1V23.662L52.881,4.291A2.515,2.515,0,0,0,51.1,0Z" transform="translate(-1779 -942)" fill="#42362a"/>
    <path id="Ellipse_3" data-name="Ellipse 3" d="M64,9a55,55,0,1,0,55,55A55.062,55.062,0,0,0,64,9m0-9A64,64,0,1,1,0,64,64,64,0,0,1,64,0Z" transform="translate(-1816 -979)" fill="#42362a"/>
  </g>
</svg>
