<svg xmlns="http://www.w3.org/2000/svg" width="128" height="128" viewBox="0 0 128 128">
  <g id="Group_8" data-name="Group 8" transform="translate(1486 979)">
    <path id="Icon_material-grain" data-name="Icon material-grain" d="M23.858,29.81a5.953,5.953,0,1,0,5.953,5.953A5.97,5.97,0,0,0,23.858,29.81ZM11.953,17.905a5.953,5.953,0,1,0,5.953,5.953A5.97,5.97,0,0,0,11.953,17.905Zm0,23.81a5.953,5.953,0,1,0,5.953,5.953A5.97,5.97,0,0,0,11.953,41.715Zm35.715-23.81a5.953,5.953,0,1,0-5.953-5.953A5.97,5.97,0,0,0,47.668,17.905ZM35.763,41.715a5.953,5.953,0,1,0,5.953,5.953A5.97,5.97,0,0,0,35.763,41.715ZM47.668,29.81a5.953,5.953,0,1,0,5.953,5.953A5.97,5.97,0,0,0,47.668,29.81ZM35.763,17.905a5.953,5.953,0,1,0,5.953,5.953A5.97,5.97,0,0,0,35.763,17.905ZM23.858,6a5.953,5.953,0,1,0,5.953,5.953A5.97,5.97,0,0,0,23.858,6Z" transform="translate(-1452 -945)" fill="#42362a"/>
    <path id="Ellipse_5" data-name="Ellipse 5" d="M64,9a55,55,0,1,0,55,55A55.062,55.062,0,0,0,64,9m0-9A64,64,0,1,1,0,64,64,64,0,0,1,64,0Z" transform="translate(-1486 -979)" fill="#42362a"/>
  </g>
</svg>
