<svg xmlns="http://www.w3.org/2000/svg" width="128" height="128" viewBox="0 0 128 128">
  <g id="Group_7" data-name="Group 7" transform="translate(1645 979)">
    <path id="Icon_awesome-lightbulb" data-name="Icon awesome-lightbulb" d="M11.186,52.906a3.728,3.728,0,0,0,.624,2.06l1.99,2.991a3.725,3.725,0,0,0,3.1,1.663h7.186a3.725,3.725,0,0,0,3.1-1.663l1.99-2.991a3.725,3.725,0,0,0,.624-2.06l0-4.466H11.18l.006,4.466ZM0,20.494A20.38,20.38,0,0,0,5.072,33.976a33.463,33.463,0,0,1,6.08,10.649c0,.03.008.061.013.091H29.823c0-.03.008-.059.013-.091a33.463,33.463,0,0,1,6.08-10.649A20.49,20.49,0,1,0,0,20.494Zm20.494-9.315a9.326,9.326,0,0,0-9.315,9.315,1.863,1.863,0,1,1-3.726,0A13.056,13.056,0,0,1,20.494,7.452a1.863,1.863,0,1,1,0,3.726Z" transform="translate(-1601 -945)" fill="#0281af"/>
    <path id="Ellipse_4" data-name="Ellipse 4" d="M64,9a55,55,0,1,0,55,55A55.062,55.062,0,0,0,64,9m0-9A64,64,0,1,1,0,64,64,64,0,0,1,64,0Z" transform="translate(-1645 -979)" fill="#0281af"/>
  </g>
</svg>
