<?xml version="1.0" encoding="utf-8"?>
<!-- Generator: Adobe Illustrator 26.0.3, SVG Export Plug-In . SVG Version: 6.00 Build 0)  -->
<svg version="1.1" id="Layer_1" xmlns="http://www.w3.org/2000/svg" xmlns:xlink="http://www.w3.org/1999/xlink" x="0px" y="0px"
	 viewBox="0 0 70.2 62.4" style="enable-background:new 0 0 70.2 62.4;" xml:space="preserve">
<style type="text/css">
	.st0{fill:#423629;}
</style>
<path id="Icon_awesome-shopping-cart" class="st0" d="M53.8,34.7l3.7-16.2c0.2-1-0.4-2-1.4-2.2c-0.1,0-0.3,0-0.4,0H25.1l-0.7-3.5
	c-0.2-0.9-0.9-1.5-1.8-1.5h-8c-1,0-1.9,0.8-1.9,1.9c0,0,0,0,0,0v1.2c0,1,0.8,1.9,1.9,1.9c0,0,0,0,0,0H20L25.4,43
	c-2.1,1.2-2.8,3.9-1.6,6s3.9,2.8,6,1.6s2.8-3.9,1.6-6c-0.2-0.3-0.4-0.7-0.7-0.9H47c-1.7,1.7-1.7,4.4-0.1,6.2s4.4,1.7,6.2,0.1
	c1.7-1.7,1.7-4.4,0.1-6.2c-0.4-0.4-0.8-0.7-1.2-0.9l0.4-1.9c0.2-1-0.4-2-1.4-2.2c-0.1,0-0.3,0-0.4,0H29.6l-0.5-2.5H52
	C52.8,36.2,53.6,35.6,53.8,34.7z"/>
</svg>
