<svg xmlns="http://www.w3.org/2000/svg" width="286.666" height="366.999" viewBox="0 0 286.666 366.999">
  <path id="Intersection_1" data-name="Intersection 1" d="M-7097.156,573q-1.753-2.341-3.739-4.521l-56.147-61.3a60.2,60.2,0,0,1-13.968-55.117l14.25-56.9-25.123,10.124a29.788,29.788,0,0,0-15.465,14.434l-6.281,12.747a29.593,29.593,0,0,1-39.839,13.406,30.094,30.094,0,0,1-13.309-40.213l6.279-12.749a89.425,89.425,0,0,1,46.587-43.305c35.057-14.155,53.711-23.715,87.456-23.621,43.587.093,82.019,29.338,95.8,71.145l9.091,27.558,21.841,11.06a30.345,30.345,0,0,1,13.4,40.306,29.591,29.591,0,0,1-39.836,13.406L-7038,478.4a59.782,59.782,0,0,1-29.714-34.681l-5.156-15.467-16.121,64.4,42.649,46.587a59.99,59.99,0,0,1,13.967,25.964l1.946,7.8Zm-109.562,0q1.345-2.612,2.433-5.365l19.4-48.274c8.155,11.155-7.4-6.187,44.431,50.335l-1.319,3.3Zm83.421-322.006A45.006,45.006,0,0,1-7078.3,206a45,45,0,0,1,44.993,44.992,45,45,0,0,1-44.993,44.994A45.006,45.006,0,0,1-7123.3,250.993Z" transform="translate(7259.912 -206)" fill="#0281af"/>
</svg>
