<svg xmlns="http://www.w3.org/2000/svg" width="551.197" height="390.928" viewBox="0 0 551.197 390.928">
  <path id="Union_1" data-name="Union 1" d="M0,390.928V28.871H246.574v10H10V380.927H454.307V296.775h10v94.153ZM356.627,317.45c0-11.077,8.48-19.08,20.087-19.08,6.2,0,11.395,2.067,14.892,6.042l-4.346,4.241a13.767,13.767,0,0,0-10.228-4.241c-7.9,0-13.462,5.353-13.462,13.038,0,7.526,5.565,13.038,13.409,13.038a14.987,14.987,0,0,0,7.632-1.908V317.026h6.519v14.787a23.491,23.491,0,0,1-14.522,4.717C365.107,336.53,356.627,328.527,356.627,317.45ZM343.642,336l-20.458-25.122V336h-6.837V298.9h5.671l20.458,25.122V298.9h6.837V336Zm-44.2,0V298.9h6.889V336Zm-16.854,0V320.1H263.4V336H256.51V298.9H263.4v15.317h19.186V298.9h6.889V336Zm-50.456,0V304.73h-12.3v-4.515l-13.727,22.694V336h-6.889V323.014L184.641,298.9h7.367l10.865,18.073L213.844,298.9h37.471v5.83h-12.3V336Zm-55.968,0-7.579-10.865a12.891,12.891,0,0,1-1.431.053h-8.375V336h-6.889V298.9h15.264c9.751,0,15.794,4.982,15.794,13.2a11.861,11.861,0,0,1-7.9,11.714L183.581,336Zm-17.384-16.483h8.057c6.042,0,9.168-2.756,9.168-7.421s-3.127-7.367-9.168-7.367h-8.057ZM116.377,336V298.9h27.084v5.777H123.268v9.646h17.914v5.671H123.268v10.228H144.2V336Zm-26.87,0L73.289,298.9h7.473L93.11,327.52l12.455-28.62h6.89L96.29,336Zm-45.951,0V298.9H70.638v5.777H50.446v9.646H68.36v5.671H50.446v10.228H71.381V336Zm30.687-82.55c0-10.971,8.48-19.08,19.981-19.08s19.981,8.056,19.981,19.08-8.48,19.08-19.981,19.08S74.243,264.421,74.243,253.45Zm6.943,0a13.038,13.038,0,1,0,13.038-13.038A12.643,12.643,0,0,0,81.185,253.45ZM145.793,272l-7.579-10.865a12.891,12.891,0,0,1-1.431.053h-8.374V272h-6.889V234.9h15.264c9.752,0,15.793,4.981,15.793,13.2a11.862,11.862,0,0,1-7.9,11.714L153.212,272Zm-17.384-16.483h8.056c6.043,0,9.169-2.757,9.169-7.421s-3.127-7.367-9.169-7.367h-8.056ZM43.556,272V234.9H70.638v5.777H50.446v11.289H68.36v5.83H50.446V272Zm322.492-55.562-35.06,26.518c-4.87,3.681-12.14-.241-10.9-5.886L329.8,193l-9.707-44.065c-1.245-5.645,6.026-9.572,10.9-5.886l35.06,26.518c17.556-18.813,49.1-40.8,85.22-40.8,55.186,0,99.926,51.388,99.926,64.235s-44.74,64.236-99.926,64.236C415.151,257.235,383.6,235.247,366.047,216.437ZM476.736,193a9.635,9.635,0,1,0,9.635-9.635A9.637,9.637,0,0,0,476.736,193ZM190.949,204.078l2.385-5.353a20.557,20.557,0,0,0,12.243,4.081c5.777,0,8.215-2.067,8.215-4.823,0-8-22.048-2.756-22.048-16.536,0-5.99,4.77-11.077,14.946-11.077a23.45,23.45,0,0,1,12.349,3.286l-2.173,5.353a20.618,20.618,0,0,0-10.229-2.915c-5.724,0-8.056,2.226-8.056,5.035,0,7.9,22,2.757,22,16.377,0,5.936-4.823,11.024-15,11.024C199.8,208.53,194.023,206.728,190.949,204.078ZM182.1,208l-13.091-15.529-5.883,6.042V208h-6.889V170.9h6.889v19.027L181.462,170.9H189.2l-15.583,16.589L190.154,208Zm-41.5,0L120.14,182.878V208H113.3V170.9h5.671l20.458,25.122V170.9h6.837V208Zm-39.22,0-3.71-8.586H79.118L75.461,208h-7.1l16.695-37.1h6.784L108.587,208ZM81.451,194.008H95.389l-7-16.218ZM51.081,208V176.73h-12.3V170.9H70.268v5.83h-12.3V208ZM301.325,60.054,277.31,78.218c-3.335,2.522-8.316-.165-7.464-4.031L276.5,44l-6.65-30.184C269,9.95,273.977,7.26,277.313,9.785l24.016,18.164C313.354,15.062,334.961,0,359.7,0c37.8,0,68.447,35.2,68.447,44S397.5,88,359.7,88C334.961,88,313.351,72.938,301.325,60.054ZM377.146,44a6.6,6.6,0,1,0,6.6-6.6A6.6,6.6,0,0,0,377.146,44Z" fill="#f9f8f8"/>
</svg>
