<svg xmlns="http://www.w3.org/2000/svg" viewBox="0 0 395.17 460.31"><g id="Layer_2" data-name="Layer 2"><g id="Layer_1-2" data-name="Layer 1"><g id="Group_10" data-name="Group 10"><path d="M326.36,27.2V54.4H312.49l-4.71-5.89a33.57,33.57,0,0,0-4-4.25A34.93,34.93,0,0,0,254.45,47a33.55,33.55,0,0,0-5,7.4H0V27.2A27.2,27.2,0,0,1,27.2,0h272a27.19,27.19,0,0,1,27.19,27.2Z"/><path d="M307,159.36,281,126.92H0v99.72a27.2,27.2,0,0,0,27.2,27.2H245.53V208a35,35,0,0,1,40.77-34.5c13.75,2.28,24.7,13.21,28.05,26.92V180.51A33.78,33.78,0,0,0,307,159.36ZM90.65,210.77a6.81,6.81,0,0,1-6.8,6.8H43.06a6.81,6.81,0,0,1-6.8-6.8V188.11a6.82,6.82,0,0,1,6.8-6.8H83.85a6.82,6.82,0,0,1,6.8,6.8Zm108.79,0a6.81,6.81,0,0,1-6.8,6.8H115.58a6.81,6.81,0,0,1-6.8-6.8V188.11a6.82,6.82,0,0,1,6.8-6.8h77.06a6.82,6.82,0,0,1,6.8,6.8Z"/><path d="M395.17,193.05V448.84a11.5,11.5,0,0,1-11.47,11.47H314.88a11.51,11.51,0,0,1-11.47-11.47V409.12l-27-33.33a84.38,84.38,0,0,1-18.86-53.12V208a22.6,22.6,0,0,1,.33-3.86,23,23,0,0,1,26.48-18.8c11.26,1.87,19.07,12.47,19.07,23.87v56.14a11.47,11.47,0,0,0,22.94,0V180.51a45.65,45.65,0,0,0-10-28.68L296.4,126.92,263.34,85.59c-7.17-8.88-7.67-22.08,0-30.53l.61-.66a21.28,21.28,0,0,1,2.22-2,22.91,22.91,0,0,1,30.82,2,19.4,19.4,0,0,1,1.4,1.59l86.74,108.39A45.83,45.83,0,0,1,395.17,193.05Z"/></g></g></g></svg>